<svg xmlns="http://www.w3.org/2000/svg" width="16" height="16">
  <path d="m 8.1499986,11.6675 q -0.75,0 -1.29,-0.3375 -0.54,-0.3375 -0.825,-0.96 -0.285,-0.6225 -0.285,-1.485 0,-0.69 0.165,-1.275 0.165,-0.5925 0.48,-1.035 0.315,-0.4425 0.765,-0.6825 0.4575,-0.2475 1.035,-0.2475 0.615,0 1.0725,0.33 0.465,0.3225 0.72,0.9075 0.2625004,0.585 0.2625004,1.38 0,0.5175 -0.1275,0.96 -0.12,0.435 -0.3675004,0.705 -0.24,0.2625 -0.6,0.2625 -0.2325,0 -0.3825,-0.12 -0.15,-0.12 -0.2325,-0.3075 h -0.015 q -0.105,0.165 -0.2775,0.3 -0.1725,0.1275 -0.4275,0.1275 -0.435,0 -0.675,-0.3975 -0.24,-0.3975 -0.24,-1.035 0,-0.4875 0.1425,-0.855 0.15,-0.375 0.42,-0.585 0.27,-0.2175 0.6525,-0.2175 0.2625,0 0.51,0.0675 0.255,0.06 0.465,0.135 l -0.075,1.4775 q -0.0075,0.0525 -0.0075,0.1125 0,0.0525 0,0.12 -0.0075,0.3 0.045,0.405 0.0525,0.105 0.1425,0.105 0.15,0 0.2325,-0.36 0.09,-0.36 0.09,-0.885 0,-1.0125 -0.375,-1.515 -0.375,-0.5025 -0.9525,-0.5025 -0.54,0 -0.9225,0.3375 -0.3825,0.33 -0.585,0.915 -0.2025,0.5775 -0.2025,1.32 0,1.065 0.4275,1.6425 0.4275,0.57 1.2,0.57 0.3525,0 0.705,-0.0825 0.36,-0.09 0.6525,-0.225 v 0.63 q -0.27,0.1425 -0.6,0.2175 -0.33,0.0825 -0.72,0.0825 z m -0.2325,-2.145 q 0.195,0 0.2775,-0.2775 0.09,-0.2775 0.1125,-0.69 l 0.0375,-0.75 q -0.09,-0.0375 -0.195,-0.0375 -0.2025,0 -0.3225,0.15 -0.1125,0.1425 -0.165,0.375 -0.045,0.225 -0.045,0.48 0,0.3975 0.075,0.5775 0.075,0.1725 0.225,0.1725 z" fill="#5C6BC0" aria-label="@"/>
</svg>
