<svg width="512" height="512" viewBox="0 0 512 512" fill="none" xmlns="http://www.w3.org/2000/svg" xmlns:xlink="http://www.w3.org/1999/xlink">
<g clip-path="url(#clip0_27_4)">
<rect width="512" height="512" rx="40" fill="url(#paint0_linear_27_4)"/>
<rect width="512" height="512" rx="40" fill="url(#pattern0_27_4)" fill-opacity="0.21"/>
<path d="M5.24048 228L8.38225 231.947L11.524 235.89L14.6658 239.823L17.8076 243.741L20.9493 247.64L24.0911 251.516L27.2329 255.362L30.3747 259.176L33.5164 262.951L36.6582 266.684L39.8 270.369L42.9418 274.003L46.0835 277.581L49.2253 281.099L52.3671 284.552L55.5089 287.936L58.6506 291.247L61.7924 294.481L64.9342 297.634L68.0759 300.702L71.2177 303.681L74.3595 306.568L77.5013 309.36L80.643 312.052L83.7848 314.643L86.9266 317.127L90.0684 319.503L93.2101 321.767L96.3519 323.917L99.4937 325.951L102.635 327.865L105.777 329.657L108.919 331.325L112.061 332.868L115.203 334.283L118.344 335.568L121.486 336.722L124.628 337.744L127.77 338.632L130.911 339.385L134.053 340.003L137.195 340.484L140.337 340.828L143.479 341.035L146.62 341.104L149.762 341.035L152.904 340.828L156.046 340.484L159.187 340.003L162.329 339.385L165.471 338.632L168.613 337.744L171.754 336.722L174.896 335.568L178.038 334.283L181.18 332.868L184.322 331.325L187.463 329.657L190.605 327.865L193.747 325.951L196.889 323.917L200.03 321.767L203.172 319.503L206.314 317.127L209.456 314.643L212.598 312.052L215.739 309.36L218.881 306.568L222.023 303.681L225.165 300.702L228.306 297.634L231.448 294.481L234.59 291.247L237.732 287.936L240.873 284.552L244.015 281.099L247.157 277.581L250.299 274.003L253.441 270.369L256.582 266.684L259.724 262.951L262.866 259.176L266.008 255.362L269.149 251.516L272.291 247.64L275.433 243.741L278.575 239.823L281.717 235.89L284.858 231.947L288 228L291.142 224.053L294.284 220.11L297.425 216.177L300.567 212.259L303.709 208.36L306.851 204.484L309.992 200.638L313.134 196.824L316.276 193.049L319.418 189.316L322.56 185.631L325.701 181.996L328.843 178.418L331.985 174.901L335.127 171.448L338.268 168.064L341.41 164.753L344.552 161.519L347.694 158.366L350.836 155.298L353.977 152.319L357.119 149.431L360.261 146.64L363.403 143.947L366.544 141.357L369.686 138.873L372.828 136.497L375.97 134.233L379.111 132.082L382.253 130.049L385.395 128.135L388.537 126.343L391.679 124.674L394.82 123.132L397.962 121.717L401.104 120.432L404.246 119.278L407.387 118.256L410.529 117.368L413.671 116.614L416.813 115.997L419.955 115.516L423.096 115.172L426.238 114.965L429.38 114.896L432.522 114.965L435.663 115.172L438.805 115.516L441.947 115.997L445.089 116.614L448.23 117.368L451.372 118.256L454.514 119.278L457.656 120.432L460.798 121.717L463.939 123.132L467.081 124.674L470.223 126.343L473.365 128.135L476.506 130.049L479.648 132.082L482.79 134.233L485.932 136.497L489.074 138.873L492.215 141.357L495.357 143.947L498.499 146.64L501.641 149.431L504.782 152.319L507.924 155.298L511.066 158.366L514.208 161.519L517.349 164.753L520.491 168.064L523.633 171.448L526.775 174.901L529.917 178.418L533.058 181.996L536.2 185.631L539.342 189.316L542.484 193.049L545.625 196.824L548.767 200.638L551.909 204.484L555.051 208.36L558.193 212.259L561.334 216.177L564.476 220.11L567.618 224.053L570.76 228V510.76H5.24048V228Z" fill="url(#paint1_linear_27_4)"/>
<g opacity="0.75">
<path d="M368.553 126.962L325.001 152.107L325.001 101.816L368.553 126.962Z" fill="#3C1634"/>
<path d="M354.958 253.311L312.275 277.954L312.275 228.669L354.958 253.311Z" fill="#3C1634"/>
<path d="M367.733 386.188L325.043 410.835L325.043 361.54L367.733 386.188Z" fill="#3C1634"/>
<path d="M157.4 410.829C147.133 410.829 142 405.402 142 394.549V119.109C142 108.256 147.133 102.829 157.4 102.829L325 101.829C325 125.829 325 109.216 325 121.829V133.329C325 145.942 325 131.829 325 152.109H200.52V228.669H312.28C312.28 247.589 312.28 234.976 312.28 247.589V259.029C312.28 271.642 312.28 263.829 312.28 277.949H200.52V361.549H325.04C325.04 384.829 325.04 367.856 325.04 380.469V391.909C325.04 404.522 325.04 394.329 325.04 410.829H157.4Z" fill="white"/>
</g>
<rect x="4" y="4" width="504" height="504" rx="36" stroke="url(#paint2_linear_27_4)" stroke-width="8"/>
</g>
<defs>
<linearGradient id="paint0_linear_27_4" x1="17.2841" y1="1.72695e-06" x2="494.716" y2="512" gradientUnits="userSpaceOnUse">
<stop stop-color="#73015A"/>
<stop offset="0.620192" stop-color="#300025"/>
</linearGradient>
<linearGradient id="paint1_linear_27_4" x1="288" y1="114.896" x2="288" y2="510.76" gradientUnits="userSpaceOnUse">
<stop stop-color="#A0007E"/>
<stop offset="1" stop-color="#3A002E"/>
</linearGradient>
<linearGradient id="paint2_linear_27_4" x1="-5.01058e-06" y1="37.9048" x2="512" y2="474.095" gradientUnits="userSpaceOnUse">
<stop stop-color="#9F007D"/>
<stop offset="1" stop-color="#14000F"/>
</linearGradient>
<clipPath id="clip0_27_4">
<rect width="512" height="512" rx="40" fill="white"/>
</clipPath>
<pattern id="pattern0_27_4" patternUnits="userSpaceOnUse" patternTransform="matrix(13.36 0 0 13.36 0 0)" preserveAspectRatio="none" viewBox="0 0 13.36 13.36" width="1" height="1">
<g id="pattern0_27_4_inner">
<path d="M4 2C4 3.10457 3.10457 4 2 4C0.89543 4 0 3.10457 0 2C0 0.89543 0.89543 0 2 0C3.10457 0 4 0.89543 4 2Z" fill="#D9D9D9"/>
</g>
</pattern></defs>
</svg>
