<svg width="546" height="546" viewBox="0 0 546 546" fill="none" xmlns="http://www.w3.org/2000/svg">
<circle cx="272.923" cy="272.923" r="272.923" fill="white" fill-opacity="0.15"/>
<path d="M390.803 427.329C391.277 427.384 391.752 427.427 392.227 427.458C393.892 427.567 395.568 427.531 397.229 427.356C395.093 427.581 392.933 427.577 390.803 427.33V427.329ZM401.454 426.602C400.76 426.777 400.06 426.929 399.355 427.055L398.649 427.172C399.593 427.027 400.529 426.836 401.454 426.602ZM386.602 426.509V426.51V426.509ZM409.038 423.524C408.112 424.054 407.157 424.539 406.177 424.975C405.307 425.359 404.418 425.703 403.513 426.002C404.418 425.703 405.307 425.359 406.177 424.974C407.157 424.538 408.112 424.054 409.038 423.524ZM384.561 425.851L385.236 426.089C385.01 426.013 384.785 425.934 384.561 425.852L383.893 425.594C384.115 425.683 384.338 425.768 384.561 425.851ZM378.347 422.563C378.518 422.685 378.69 422.805 378.863 422.924C380.077 423.753 381.366 424.48 382.719 425.095C381.173 424.393 379.709 423.544 378.347 422.564V422.563ZM413 420.835C412.306 421.387 411.59 421.911 410.851 422.403C411.147 422.207 411.438 422.004 411.726 421.797C411.87 421.694 412.014 421.589 412.156 421.484C412.441 421.272 412.722 421.056 413 420.835ZM375.016 419.702C375.309 420.001 375.61 420.292 375.917 420.576L376.383 420.997C375.911 420.582 375.456 420.15 375.016 419.702ZM415.008 419.093C414.878 419.215 414.749 419.336 414.618 419.456L414.222 419.811C414.488 419.576 414.75 419.336 415.008 419.093ZM371.2 414.712C371.307 414.894 371.416 415.075 371.527 415.254C371.971 415.97 372.449 416.663 372.959 417.329C373.086 417.496 373.216 417.661 373.347 417.824C373.479 417.988 373.613 418.149 373.748 418.309L374.159 418.784C373.046 417.532 372.054 416.17 371.2 414.713V414.712ZM418.875 414.691C418.141 415.703 417.35 416.667 416.506 417.58V417.579C416.867 417.188 417.219 416.787 417.561 416.377C417.789 416.104 418.013 415.826 418.232 415.545C418.342 415.405 418.449 415.263 418.556 415.12C418.664 414.978 418.77 414.834 418.875 414.69V414.691ZM422.51 408.696C421.66 410.336 420.758 411.922 419.781 413.389V413.388C420.367 412.508 420.926 411.586 421.464 410.634C421.822 409.999 422.17 409.352 422.51 408.696ZM369.268 410.56C369.421 411.01 369.586 411.449 369.764 411.875V411.876C369.497 411.237 369.258 410.569 369.049 409.876V409.875C369.119 410.106 369.192 410.334 369.268 410.56ZM425.394 402.677C425.089 403.346 424.78 404.02 424.467 404.693C424.781 404.02 425.089 403.346 425.394 402.676V402.677ZM367.946 399.221C367.913 399.746 367.892 400.272 367.883 400.798C367.892 400.272 367.913 399.746 367.946 399.221ZM369.331 391.687C368.879 393.083 368.53 394.571 368.288 396.106L368.419 395.342C368.465 395.089 368.514 394.838 368.566 394.588C368.723 393.839 368.905 393.105 369.114 392.392C369.184 392.154 369.255 391.918 369.331 391.686V391.687ZM414.533 133.712C422.15 142.301 425.511 154.956 430.984 164.861C431.154 165.17 431.161 165.301 431.223 165.609C433.55 169.42 436.71 176.446 438.747 180.682L453.132 210.468C456.423 217.233 460.023 225.081 464.081 231.332C468.212 237.763 473.583 243.308 479.875 247.646C484.091 250.544 489.133 252.579 493.469 255.28C502.851 261.124 506.695 271.493 504.206 282.141C502.607 288.971 498.882 294.16 492.818 297.695C489.337 299.725 485.466 301.397 482.101 303.535C468.162 312.392 463.229 323.286 456.368 337.198C454.749 341.349 451.586 347.269 449.542 351.45C445.899 358.912 442.307 366.395 438.761 373.903C438.565 374.322 438.287 374.914 437.959 375.612L437.73 376.102C436.858 377.961 435.717 380.394 434.797 382.372C434.473 383.068 434.176 383.708 433.927 384.246C433.905 384.296 433.881 384.345 433.859 384.393C431.03 383.493 427.745 379.634 425.288 377.93C414.447 370.422 402.943 363.019 390.747 357.912C389.128 357.235 389.22 357.236 387.011 356.226C386.217 355.468 386.761 355.988 386.171 355.386C385.67 356.308 385.18 357.24 384.699 358.182C385.31 356.967 385.932 355.773 386.565 354.607C390.433 345.875 394.808 336.594 398.889 327.901C404.384 316.198 409.104 302.815 417.432 293.042C424.301 284.98 430.121 281.495 438.886 276.226C429.764 270.821 424.188 268.357 416.564 259.498C406.16 247.413 400.639 230.323 393.333 215.988C389.585 208.632 383.417 196.918 380.474 189.596C377.888 185.971 371.976 173.723 368.198 165.292C370.704 170.834 373.729 177.008 375.428 180.442C376.124 179.218 375.453 180.368 376.149 179.145C376.097 178.645 387.336 162.411 388.443 160.898C392.021 156 408.616 134.232 413.575 133.915C414.496 133.769 413.723 133.897 414.533 133.712ZM437.95 375.634L435.3 381.326L437.73 376.102C437.806 375.941 437.879 375.785 437.95 375.634ZM412.638 131.75C412.923 132.02 413.203 132.295 413.477 132.576C413.113 132.237 412.765 131.915 412.638 131.75ZM403.973 126.178C405.781 126.897 407.429 127.776 408.942 128.787C407.644 127.947 405.993 127.026 403.973 126.178Z" fill="white"/>
<path d="M390.747 357.912C402.943 363.019 414.447 370.422 425.288 377.93C427.745 379.635 431.03 383.493 433.86 384.393C433.882 384.345 433.904 384.296 433.927 384.246C434.175 383.708 434.472 383.068 434.796 382.372C435.797 380.223 437.056 377.537 437.949 375.634L438.364 374.744C439.61 372.1 439.066 373.255 437.949 375.634L434.75 382.51C434.559 383.063 434.29 383.684 433.932 384.415C433.203 385.909 433.057 386.176 433.27 385.69L427.197 398.742C424.816 403.833 422.411 409.723 419.186 414.253C415.906 418.942 411.407 422.651 406.176 424.974C399.222 428.052 390.987 428.436 383.893 425.594C377.547 423.085 372.463 418.144 369.764 411.875C366.911 405.061 367.356 394.866 370.674 388.415C376.2 377.678 380.49 365.844 386.171 355.385C386.761 355.988 386.217 355.468 387.011 356.226C389.22 357.236 389.128 357.235 390.747 357.912Z" fill="white" fill-opacity="0.66"/>
<path d="M379.804 126.422C387.73 123.166 395.432 122.782 403.973 126.178C409.834 128.639 412.601 131.696 412.601 131.696C412.772 132.005 414.481 133.402 414.543 133.71C413.717 133.899 414.5 133.768 413.575 133.916C408.616 134.232 392.02 156.001 388.443 160.898C387.335 162.412 376.095 178.648 376.149 179.145C375.453 180.368 376.125 179.218 375.429 180.442C373.005 175.546 367.887 165.078 365.42 158.816C363.701 154.444 363.771 145.6 366.167 141.084C368.731 134.467 373.756 129.853 379.804 126.422Z" fill="white" fill-opacity="0.66"/>
<path d="M247.715 244.003C258.486 244.359 287.652 252.19 298.24 255.964C298.441 256.036 298.636 256.105 298.824 256.174C299.259 256.333 299.694 256.562 300.133 256.83C300.791 257.232 301.458 257.723 302.15 258.197C302.496 258.435 302.849 258.668 303.209 258.885C303.569 259.101 303.937 259.302 304.315 259.472C293.811 289.733 282.258 321.077 271.343 351.282L260.002 382.293C256.045 393.227 249.047 414.638 240.422 422.44C221.677 447.043 179.427 450.082 153.539 436.104C151.762 435.144 150.044 434.053 148.358 432.941C165.379 432.566 175.505 428.759 184.912 413.825C185.244 412.671 187.309 408.444 187.951 406.957C189.583 403.182 190.809 399.859 192.195 395.991L215.459 331.322L237.724 269.297C241.382 258.994 242.36 253.749 246.599 243.999C246.656 243.997 246.711 243.995 246.764 243.993C247.063 243.989 247.38 243.992 247.715 244.003Z" fill="white" fill-opacity="0.66"/>
<path d="M310.76 110.582C328.35 100.434 351.578 100.542 370.933 105.042C378.24 106.844 383.99 110.087 390.223 114.129C358.505 111.065 351.446 129.419 342.041 155.328L333.569 178.581L304.315 259.471C302.298 258.564 300.565 256.811 298.824 256.173C298.505 256.056 298.166 255.934 297.807 255.809C286.521 251.832 257.221 243.726 247.661 243.955C245.189 244.045 250.484 243.88 246.778 243.994C246.711 243.994 246.644 243.994 246.578 243.996C247.578 241.328 249.158 237.414 250.216 234.778C251.352 230.545 254.124 223.389 255.662 219.16L266.502 189.622L277.435 158.632C284.604 138.431 290.673 122.171 310.76 110.582Z" fill="white"/>
<path d="M155.825 349.444C156.48 348.642 156.203 348.488 156.47 349.244C158.204 352.645 161.191 359.436 163.191 363.665C166.715 371.11 172.938 382.029 175.035 389.456C176.293 393.769 176.58 398.307 175.877 402.748C173.452 417.293 161.238 424.433 148.874 424.118C148.536 424.109 148.197 424.095 147.858 424.076C147.52 424.056 147.181 424.03 146.843 423.999C146.335 423.953 145.828 423.894 145.322 423.822C144.311 423.678 143.305 423.484 142.31 423.24C141.978 423.158 141.647 423.072 141.317 422.979C140.659 422.794 140.006 422.585 139.36 422.355C139.037 422.24 138.716 422.12 138.396 421.994C138.077 421.867 137.76 421.736 137.445 421.598C137.13 421.461 136.817 421.317 136.507 421.168C136.352 421.094 136.197 421.018 136.043 420.941C135.735 420.787 135.429 420.627 135.126 420.461C134.974 420.378 134.823 420.294 134.673 420.208C134.072 419.866 133.483 419.501 132.906 419.114C131.896 418.436 130.925 417.69 130.001 416.874C129.737 416.642 129.478 416.403 129.222 416.159C128.71 415.67 128.213 415.16 127.735 414.626C127.496 414.36 127.261 414.088 127.031 413.81C126.456 413.115 125.911 412.385 125.397 411.621C125.192 411.314 124.991 411.002 124.796 410.685C124.635 410.423 124.477 410.158 124.317 409.894C122.28 406.483 119.806 401.767 117.503 397.007C116.311 394.5 115.152 391.96 114.006 389.408C114.006 389.408 114.007 389.408 114.803 388.754C121.418 381.917 129.124 375.218 136.142 368.581C141.207 363.788 148.794 358.611 153.225 353.272C153.431 352.815 155.874 349.664 155.825 349.444Z" fill="white" fill-opacity="0.66"/>
<path d="M152.921 423.953H152.922H152.921ZM162.933 420.968H162.934H162.933ZM167.856 417.603H167.857H167.856ZM169.309 416.214H169.31H169.309ZM171.583 413.461C171.384 413.742 171.18 414.018 170.97 414.289C171.18 414.018 171.384 413.742 171.583 413.461ZM172.972 411.244H172.973H172.972ZM174.739 407.263C174.434 408.148 174.089 408.999 173.705 409.814H173.704C173.934 409.325 174.151 408.823 174.353 408.309C174.488 407.965 174.617 407.617 174.739 407.263ZM175.771 403.342C175.697 403.735 175.617 404.122 175.529 404.504C175.617 404.122 175.697 403.735 175.771 403.342ZM128.008 132.041C142.549 116.249 167.816 118.309 175.994 140.06C178.437 153.578 175.577 158.077 169.974 169.714C166.533 176.815 163.14 183.939 159.795 191.087C154.469 202.521 149.226 214.087 143.845 225.507C140.097 233.462 135.922 244.79 131.066 251.796C124.237 261.65 114.635 268.299 104.463 274.201C129.364 288.044 134.997 301.638 145.801 326.719C147.055 329.634 152.378 339.204 152.616 341.737C153.413 342.862 154.792 345.573 156.315 348.758C156.275 348.716 156.218 348.963 155.825 349.444C155.873 349.666 153.431 352.816 153.225 353.272C148.794 358.612 141.207 363.788 136.141 368.582C129.123 375.218 121.418 381.917 114.802 388.755C114.045 389.377 114.008 389.407 114.007 389.408C115.151 391.955 116.305 394.49 117.495 396.991C115.185 392.219 113.047 387.405 111.696 383.822C109.354 379.737 106.741 373.898 104.598 369.546L89.1745 337.742C85.4068 330.033 81.6648 321.976 76.4939 315.122C73.123 310.573 68.9751 306.656 64.2409 303.551C55.4866 297.89 44.581 295.549 41.0691 284.225C37.7331 273.466 39.8778 260.424 49.7741 253.838C53.5662 251.314 57.8555 249.711 61.739 247.395C68.6379 243.282 76.4252 236.066 79.9109 228.713C82.0559 226.232 87.8473 213.669 89.5827 210.03C97.349 194.064 105.031 178.057 112.629 162.011C116.238 154.427 122.825 137.669 128.008 132.041ZM174.826 388.749C174.899 388.988 174.969 389.223 175.035 389.455C175.192 389.994 175.334 390.537 175.461 391.083C175.334 390.538 175.192 389.995 175.035 389.456C174.969 389.224 174.899 388.988 174.826 388.749ZM156.329 348.788C158.408 353.137 160.753 358.36 162.251 361.633L163.191 363.664C161.191 359.436 158.204 352.646 156.469 349.244C156.383 348.999 156.351 348.851 156.329 348.788Z" fill="white"/>
</svg>
