<svg width="546" height="546" viewBox="0 0 546 546" fill="none" xmlns="http://www.w3.org/2000/svg">
<circle cx="272.923" cy="272.923" r="272.923" fill="white" fill-opacity="0.15"/>
<path d="M375.804 124.422C383.73 121.166 391.432 120.782 399.973 124.178C415.949 130.53 419.48 149.281 426.984 162.862C427.154 163.17 427.162 163.301 427.224 163.61C429.551 167.42 432.71 174.446 434.747 178.682L449.131 208.468C452.422 215.233 456.023 223.081 460.081 229.332C464.212 235.762 469.583 241.308 475.875 245.645C480.091 248.544 485.132 250.579 489.469 253.28C498.851 259.124 502.696 269.492 500.206 280.141C498.607 286.971 494.882 292.16 488.818 295.695C485.338 297.725 481.466 299.397 478.101 301.535C464.162 310.392 459.229 321.286 452.368 335.198C450.75 339.349 447.586 345.269 445.542 349.451C441.763 357.191 438.038 364.954 434.364 372.744L423.197 396.742C420.816 401.834 418.411 407.723 415.186 412.253C411.906 416.942 407.407 420.652 402.176 422.975C395.222 426.053 386.987 426.436 379.893 423.594C373.547 421.085 368.463 416.145 365.764 409.876C362.911 403.061 363.356 392.867 366.674 386.416C372.2 375.679 376.885 363.064 382.565 352.606C386.433 343.875 390.808 334.594 394.889 325.901C400.383 314.198 405.103 300.816 413.432 291.042C420.301 282.98 426.12 279.495 434.886 274.226C425.764 268.821 420.188 266.357 412.565 257.498C402.161 245.413 396.639 228.322 389.333 213.988C385.585 206.632 379.417 194.918 376.474 187.595C373.067 182.821 363.887 163.078 361.42 156.816C359.701 152.444 359.771 143.6 362.167 139.084C364.731 132.467 369.756 127.853 375.804 124.422Z" fill="white" fill-opacity="0.5"/>
<path d="M382.565 352.606C382.611 353.353 382.689 353.586 382.875 354.318C384.485 355.68 385.128 355.235 386.747 355.913C398.943 361.02 410.447 368.423 421.288 375.931C423.766 377.65 426.198 381.239 429.044 382.095C429.136 381.382 430.774 378.769 431.227 377.778C437.748 363.614 444.407 349.489 451.466 335.585C451.764 335.457 452.066 335.326 452.368 335.198C450.75 339.349 447.586 345.269 445.542 349.45C441.763 357.19 438.038 364.954 434.364 372.744L423.197 396.742C420.816 401.834 418.411 407.723 415.186 412.253C411.906 416.942 407.407 420.652 402.176 422.975C395.222 426.053 386.987 426.436 379.893 423.594C373.547 421.085 368.463 416.145 365.765 409.876C362.911 403.061 363.356 392.866 366.674 386.416C372.2 375.679 376.885 363.064 382.565 352.606Z" fill="white" fill-opacity="0.5"/>
<path d="M375.804 124.422C383.73 121.166 391.432 120.782 399.973 124.178C415.949 130.53 419.48 149.281 426.984 162.862C427.154 163.17 427.162 163.301 427.224 163.61C423.836 162.525 415.643 134.694 409.386 132.149C404.004 132.98 388.02 154.001 384.443 158.898C383.335 160.412 372.095 176.648 372.149 177.145C372.494 180.225 377.071 184.614 376.474 187.595C373.067 182.821 363.887 163.078 361.42 156.816C359.701 152.444 359.771 143.6 362.167 139.084C364.731 132.467 369.756 127.853 375.804 124.422Z" fill="white" fill-opacity="0.5"/>
<path d="M362.167 139.084C364.73 132.467 369.756 127.853 375.804 124.422C373.698 132.419 369.117 135.278 362.167 139.084Z" fill="white" fill-opacity="0.5"/>
<path d="M79.9112 228.712C82.0563 226.232 87.8472 213.67 89.5826 210.03C97.3489 194.064 105.031 178.058 112.629 162.011C116.239 154.427 122.825 137.669 128.007 132.041C142.549 116.248 167.817 118.309 175.994 140.061C178.437 153.579 175.578 158.077 169.975 169.714C166.533 176.815 163.14 183.94 159.795 191.087C154.469 202.522 149.225 214.087 143.845 225.507C140.097 233.462 135.921 244.79 131.066 251.796C124.236 261.65 114.634 268.298 104.462 274.201C129.364 288.044 134.998 301.638 145.801 326.718C147.056 329.634 152.379 339.205 152.616 341.738C154.773 344.781 161.191 359.436 163.191 363.664C166.715 371.11 172.938 382.029 175.035 389.455C176.293 393.769 176.58 398.307 175.877 402.748C171.625 428.252 137.277 430.99 124.796 410.685C120.704 404.029 114.504 391.267 111.696 383.822C109.354 379.737 106.741 373.898 104.599 369.546L89.1748 337.742C85.4071 330.033 81.6652 321.975 76.4942 315.122C73.1233 310.573 68.9753 306.656 64.2411 303.55C55.4867 297.89 44.5806 295.549 41.0687 284.224C37.7327 273.466 39.8777 260.424 49.7744 253.837C53.5666 251.314 57.8559 249.711 61.7395 247.396C68.6385 243.282 76.4257 236.066 79.9112 228.712Z" fill="white" fill-opacity="0.5"/>
<path d="M152.616 341.738C154.773 344.781 161.19 359.436 163.191 363.664C166.715 371.11 172.938 382.029 175.035 389.455C176.293 393.769 176.58 398.307 175.877 402.748C171.625 428.252 137.277 430.99 124.796 410.685C120.704 404.029 114.503 391.267 111.696 383.822C113.03 384.948 113.952 387.128 114.803 388.755C121.418 381.917 129.123 375.218 136.141 368.582C141.207 363.788 148.794 358.612 153.225 353.272C153.431 352.815 155.73 349.733 155.681 349.513C155.054 346.725 152.784 344.591 152.616 341.738Z" fill="white" fill-opacity="0.5"/>
<path d="M250.215 234.778C250.121 237.517 248.596 241.261 247.661 243.954C257.524 243.719 288.396 252.353 298.824 256.173C300.565 256.811 302.298 258.564 304.315 259.471C293.811 289.733 282.258 321.077 271.342 351.282L260.002 382.292C256.045 393.227 249.047 414.639 240.422 422.441C221.677 447.043 179.427 450.082 153.539 436.105C151.762 435.144 150.044 434.052 148.358 432.941C165.378 432.566 175.505 428.76 184.912 413.825C185.244 412.672 187.309 408.443 187.951 406.957C189.583 403.182 190.809 399.859 192.195 395.991L215.459 331.322L237.725 269.297C241.382 258.994 245.976 244.528 250.215 234.778Z" fill="white" fill-opacity="0.5"/>
<path d="M250.215 234.778C251.352 230.545 254.124 223.39 255.662 219.16L266.501 189.622L277.435 158.632C284.603 138.431 290.673 122.171 310.76 110.583C328.35 100.434 351.577 100.542 370.933 105.043C378.24 106.844 383.989 110.087 390.223 114.129C358.504 111.065 351.446 129.418 342.041 155.327L333.569 178.58L304.315 259.471C302.298 258.564 300.565 256.811 298.824 256.173C288.396 252.353 257.523 243.718 247.661 243.954C248.596 241.261 250.121 237.517 250.215 234.778Z" fill="white" fill-opacity="0.5"/>
<path d="M491.265 81.459C492.899 80.7586 494.793 81.5113 495.501 83.1429C496.206 84.775 495.463 86.671 493.833 87.3843C492.195 88.1017 490.286 87.3513 489.573 85.7104C488.865 84.0695 489.62 82.1633 491.265 81.459Z" fill="white" fill-opacity="0.5"/>
<path d="M536.3 151.244C538.035 151.847 538.491 151.935 538.766 153.797C538.058 155.298 537.93 155.351 536.664 156.493C534.964 155.543 534.17 155.302 534.089 153.264C534.728 152.046 535.053 151.984 536.3 151.244Z" fill="white" fill-opacity="0.5"/>
</svg>
