<svg width="512" height="512" viewBox="0 0 512 512" fill="none" xmlns="http://www.w3.org/2000/svg">
<g clip-path="url(#clip0_17_4)">
<path opacity="0.6" d="M5.24048 233.193C5.24048 231.699 7.16249 231.091 8.02098 232.314L10.8015 236.269L13.582 240.214L16.3625 244.145L19.143 248.056L21.9235 251.944L24.704 255.802L27.4845 259.628L30.265 263.415L33.0455 267.159L35.826 270.857L38.6065 274.502L41.387 278.091L44.1675 281.62L46.948 285.084L49.7285 288.478L52.5089 291.799L55.2894 295.043L58.0699 298.206L60.8504 301.284L63.6309 304.273L66.4114 307.169L69.1919 309.969L71.9724 312.67L74.7529 315.268L77.5334 317.761L80.3139 320.144L83.0944 322.416L85.8749 324.572L88.6554 326.612L91.4359 328.532L94.2164 330.33L96.9969 332.004L99.7774 333.551L102.558 334.97L105.338 336.26L108.119 337.417L110.899 338.442L113.68 339.333L116.46 340.089L119.241 340.708L122.021 341.191L124.802 341.536L127.582 341.744L130.363 341.813L133.143 341.744L135.924 341.536L138.704 341.191L141.485 340.708L144.265 340.089L147.046 339.333L149.826 338.442L152.607 337.417L155.387 336.26L158.168 334.97L160.948 333.551L163.729 332.004L166.509 330.33L169.29 328.532L172.07 326.612L174.851 324.572L177.631 322.416L180.412 320.144L183.192 317.761L185.973 315.268L188.753 312.67L191.534 309.969L194.314 307.169L197.095 304.273L199.875 301.284L202.656 298.206L205.436 295.043L208.217 291.799L210.997 288.478L213.778 285.084L216.558 281.62L219.339 278.091L222.119 274.502L224.9 270.857L227.68 267.159L230.461 263.415L233.241 259.628L236.022 255.802L238.802 251.944L241.583 248.056L244.363 244.145L247.144 240.214L249.924 236.269L252.705 232.314L255.485 228.354L258.266 224.395L261.046 220.44L263.827 216.495L266.607 212.564L269.388 208.653L272.168 204.765L274.949 200.906L277.729 197.081L280.51 193.294L283.29 189.549L286.071 185.852L288.851 182.207L291.632 178.618L294.412 175.089L297.193 171.625L299.973 168.231L302.754 164.909L305.534 161.665L308.315 158.503L311.095 155.425L313.876 152.436L316.656 149.54L319.437 146.739L322.217 144.038L324.998 141.44L327.778 138.948L330.559 136.565L333.339 134.293L336.12 132.136L338.9 130.097L341.681 128.177L344.461 126.379L347.242 124.705L350.022 123.158L352.803 121.739L355.583 120.449L358.364 119.291L361.144 118.266L363.925 117.376L366.705 116.62L369.486 116L372.266 115.518L375.047 115.173L377.827 114.965L380.608 114.896L383.388 114.965L386.169 115.173L388.949 115.518L391.73 116L394.51 116.62L397.291 117.376L400.071 118.266L402.852 119.291L405.632 120.449L408.413 121.739L411.193 123.158L413.974 124.705L416.754 126.379L419.535 128.177L422.315 130.097L425.096 132.136L427.876 134.293L430.657 136.565L433.437 138.948L436.218 141.44L438.998 144.038L441.779 146.739L444.559 149.54L447.34 152.436L450.12 155.425L452.901 158.503L455.681 161.665L458.462 164.909L461.242 168.231L464.023 171.625L466.803 175.089L469.584 178.618L472.364 182.207L475.145 185.852L477.925 189.549L480.706 193.294L483.486 197.081L486.267 200.906L489.047 204.765L491.828 208.653L494.608 212.564L497.389 216.495L500.169 220.44L502.95 224.395C504.759 226.972 505.73 230.044 505.73 233.193V452C505.73 485.137 478.867 512 445.73 512H65.2405C32.1035 512 5.24048 485.137 5.24048 452V233.193Z" fill="white" fill-opacity="0.15"/>
<path d="M362.664 105.468C370.59 102.211 378.291 101.828 386.833 105.223C402.808 111.576 406.34 130.327 413.843 143.907C414.014 144.216 414.021 144.347 414.083 144.655C416.41 148.466 419.57 155.492 421.607 159.727L435.991 189.513C439.282 196.279 442.883 204.126 446.941 210.377C451.072 216.808 456.442 222.353 462.734 226.691C466.951 229.59 471.992 231.625 476.329 234.326C485.71 240.17 489.555 250.538 487.066 261.186C485.466 268.017 481.742 273.205 475.678 276.741C472.197 278.77 468.325 280.442 464.961 282.58C451.022 291.437 446.089 302.332 439.228 316.244C437.609 320.394 434.446 326.314 432.402 330.496C428.623 338.236 424.898 345.999 421.223 353.79L410.057 377.788C407.675 382.88 405.271 388.769 402.046 393.299C398.766 397.988 394.267 401.697 389.036 404.02C382.082 407.098 373.846 407.482 366.753 404.64C360.407 402.131 355.323 397.19 352.624 390.922C349.771 384.107 350.216 373.912 353.534 367.461C359.059 356.725 363.744 344.11 369.425 333.652C373.293 324.921 377.668 315.639 381.749 306.947C387.243 295.243 391.963 281.861 400.292 272.088C407.16 264.026 412.98 260.541 421.746 255.272C412.624 249.867 407.048 247.402 399.424 238.544C389.02 226.458 383.499 209.368 376.193 195.034C372.445 187.677 366.277 175.963 363.334 168.641C359.927 163.866 350.746 144.124 348.28 137.862C346.561 133.489 346.63 124.646 349.027 120.13C351.59 113.513 356.616 108.898 362.664 105.468Z" fill="white"/>
<path d="M357.793 86.088C338.437 81.5876 315.209 81.4793 297.619 91.628C277.532 103.216 271.464 119.476 264.295 139.678L253.361 170.667L242.522 200.205C239.504 208.501 236.536 216.78 233.438 225.041C233.503 225.04 233.57 225.04 233.638 225.039C233.58 225.041 233.521 225.043 233.459 225.045C229.963 235.244 228.241 240.041 224.584 250.343L179.055 377.037C177.669 380.905 176.443 384.227 174.811 388.002C174.168 389.489 172.104 393.717 171.772 394.871C162.365 409.805 152.238 413.611 135.218 413.986C136.903 415.098 138.622 416.19 140.399 417.15C166.287 431.128 208.537 428.089 227.281 403.486C235.907 395.684 242.904 374.272 246.861 363.338L258.202 332.327C269.118 302.122 280.671 270.778 291.175 240.517L320.429 159.625L328.901 136.372C338.305 110.463 345.364 92.111 377.083 95.1749C370.849 91.1322 365.099 87.8892 357.793 86.088Z" fill="white" fill-opacity="0.6"/>
<path d="M114.867 113.086C129.409 97.2941 154.676 99.3549 162.854 121.106C165.296 134.624 162.437 139.122 156.834 150.759C153.393 157.861 149.999 164.985 146.654 172.133C141.329 183.567 136.085 195.133 130.705 206.552C126.957 214.508 122.781 225.836 117.926 232.842C111.097 242.695 101.494 249.343 91.3223 255.246C116.224 269.089 121.857 282.684 132.66 307.764C133.915 310.68 139.238 320.25 139.476 322.783C140.273 323.908 141.652 326.619 143.175 329.803C143.18 329.808 143.183 329.817 143.188 329.83C145.782 335.257 148.792 342.048 150.051 344.71C153.575 352.155 159.797 363.074 161.895 370.501C163.153 374.814 163.44 379.353 162.736 383.794C160.577 396.745 150.657 403.825 139.781 404.999C139.614 405.017 139.446 405.033 139.278 405.049C138.775 405.094 138.27 405.128 137.764 405.148C137.089 405.176 136.412 405.181 135.734 405.164C135.565 405.159 135.395 405.153 135.226 405.146C134.887 405.132 134.548 405.112 134.21 405.087C132.686 404.972 131.166 404.744 129.668 404.403C129.335 404.327 129.003 404.246 128.672 404.159C128.011 403.985 127.355 403.788 126.705 403.569C126.38 403.46 126.057 403.345 125.736 403.224C125.415 403.104 125.096 402.977 124.779 402.845C124.462 402.714 124.147 402.576 123.834 402.432C122.113 401.645 120.46 400.689 118.909 399.562C118.627 399.357 118.349 399.146 118.074 398.93C117.937 398.822 117.8 398.713 117.664 398.602C117.393 398.381 117.125 398.153 116.861 397.921C116.465 397.571 116.078 397.209 115.7 396.834C115.448 396.584 115.2 396.329 114.957 396.068C114.592 395.676 114.237 395.272 113.892 394.855C113.662 394.577 113.436 394.294 113.216 394.005C112.995 393.715 112.779 393.421 112.568 393.121C112.358 392.82 112.152 392.514 111.952 392.203C111.852 392.047 111.753 391.89 111.655 391.731C111.514 391.502 111.372 391.265 111.227 391.022C108.725 386.878 106.482 382.511 104.355 378.037C102.045 373.264 99.9066 368.45 98.5557 364.867C96.2132 360.782 93.6007 354.943 91.458 350.592L76.0342 318.788C72.2664 311.079 68.5245 303.02 63.3535 296.167C59.9827 291.618 55.8347 287.701 51.1006 284.595C42.3463 278.935 31.4407 276.595 27.9287 265.27C24.5927 254.512 26.7371 241.469 36.6338 234.883C40.4259 232.359 44.7152 230.756 48.5986 228.441C55.4977 224.327 63.285 217.111 66.7705 209.758C68.9156 207.277 74.707 194.715 76.4424 191.076C84.2087 175.11 91.8908 159.103 99.4883 143.056C103.098 135.473 109.685 118.714 114.867 113.086Z" fill="white"/>
<rect x="4" y="4" width="504" height="504" rx="56" stroke="white" stroke-opacity="0.15" stroke-width="8"/>
</g>
<defs>
<clipPath id="clip0_17_4">
<rect width="512" height="512" rx="60" fill="white"/>
</clipPath>
</defs>
</svg>
