<svg width="128" height="128" viewBox="0 0 128 128" fill="none" xmlns="http://www.w3.org/2000/svg">
<g clip-path="url(#clip0_8_41)">
<rect width="128" height="128" rx="15" fill="url(#paint0_radial_8_41)"/>
<path d="M2.89893 75.4814C2.89893 75.1242 3.33845 74.9542 3.57878 75.2184L4.25864 75.9647L4.9385 76.7092L5.61836 77.451L6.29822 78.1892L6.97808 78.9228L7.65794 79.651L8.3378 80.3729L9.01766 81.0877L9.69752 81.7943L10.3774 82.492L11.0572 83.18L11.7371 83.8573L12.417 84.5232L13.0968 85.1769L13.7767 85.8175L14.4565 86.4443L15.1364 87.0565L15.8162 87.6534L16.4961 88.2342L17.176 88.7982L17.8558 89.3448L18.5357 89.8733L19.2155 90.383L19.8954 90.8733L20.5753 91.3437L21.2551 91.7934L21.935 92.2221L22.6148 92.6291L23.2947 93.0141L23.9746 93.3764L24.6544 93.7157L25.3343 94.0315L26.0141 94.3236L26.694 94.5914L27.3738 94.8347L28.0537 95.0532L28.7336 95.2467L29.4134 95.4148L30.0933 95.5574L30.7731 95.6743L31.453 95.7654L32.1329 95.8305L32.8127 95.8696L33.4926 95.8827L34.1724 95.8696L34.8523 95.8305L35.5322 95.7654L36.212 95.6743L36.8919 95.5574L37.5717 95.4148L38.2516 95.2467L38.9315 95.0532L39.6113 94.8347L40.2912 94.5914L40.971 94.3236L41.6509 94.0315L42.3307 93.7157L43.0106 93.3764L43.6905 93.0141L44.3703 92.6291L45.0502 92.2221L45.73 91.7934L46.4099 91.3437L47.0898 90.8733L47.7696 90.383L48.4495 89.8733L49.1293 89.3448L49.8092 88.7982L50.4891 88.2342L51.1689 87.6534L51.8488 87.0565L52.5286 86.4443L53.2085 85.8175L53.8884 85.1769L54.5682 84.5232L55.2481 83.8573L55.9279 83.18L56.6078 82.492L57.2876 81.7943L57.9675 81.0877L58.6474 80.3729L59.3272 79.651L60.0071 78.9228L60.6869 78.1892L61.3668 77.451L62.0467 76.7092L62.7265 75.9647L63.4064 75.2184L64.0862 74.4711L64.7661 73.7239L65.446 72.9775L66.1258 72.233L66.8057 71.4912L67.4855 70.753L68.1654 70.0194L68.8452 69.2912L69.5251 68.5693L70.205 67.8546L70.8848 67.1479L71.5647 66.4502L72.2445 65.7623L72.9244 65.0849L73.6043 64.419L74.2841 63.7653L74.964 63.1247L75.6438 62.4979L76.3237 61.8857L77.0036 61.2889L77.6834 60.708L78.3633 60.144L79.0431 59.5974L79.723 59.0689L80.4029 58.5592L81.0827 58.0689L81.7626 57.5986L82.4424 57.1488L83.1223 56.7201L83.8021 56.3131L84.482 55.9282L85.1619 55.5658L85.8417 55.2265L86.5216 54.9107L87.2014 54.6187L87.8813 54.3508L88.5612 54.1075L89.241 53.889L89.9209 53.6956L90.6007 53.5275L91.2806 53.3849L91.9605 53.2679L92.6403 53.1769L93.3202 53.1117L94 53.0726L94.6799 53.0596L95.3598 53.0726L96.0396 53.1117L96.7195 53.1769L97.3993 53.2679L98.0792 53.3849L98.759 53.5275L99.4389 53.6956L100.119 53.889L100.799 54.1075L101.478 54.3508L102.158 54.6187L102.838 54.9107L103.518 55.2265L104.198 55.5658L104.878 55.9282L105.558 56.3131L106.237 56.7201L106.917 57.1488L107.597 57.5986L108.277 58.0689L108.957 58.5592L109.637 59.0689L110.317 59.5974L110.997 60.144L111.676 60.708L112.356 61.2889L113.036 61.8857L113.716 62.4979L114.396 63.1247L115.076 63.7653L115.756 64.419L116.435 65.0849L117.115 65.7623L117.795 66.4502L118.475 67.1479L119.155 67.8546L119.835 68.5693L120.515 69.2912L121.194 70.0194L121.874 70.753L122.554 71.4912L123.234 72.233L123.914 72.9775L124.594 73.7239C125.031 74.2047 125.274 74.8313 125.274 75.4814V113C125.274 121.284 118.558 128 110.274 128H17.8299C9.58377 128 2.89893 121.315 2.89893 113.069V75.4814Z" fill="url(#paint1_linear_8_41)"/>
<path d="M88.2494 29.7954C90.0706 29.0472 91.8403 28.959 93.803 29.7393C97.474 31.199 98.2855 35.5077 100.01 38.6283C100.049 38.6992 100.051 38.7293 100.065 38.8002C100.6 39.6759 101.326 41.2903 101.794 42.2636L105.099 49.1081C105.855 50.6627 106.683 52.4659 107.615 53.9024C108.564 55.38 109.798 56.6543 111.244 57.651C112.213 58.3172 113.372 58.7847 114.368 59.4054C116.524 60.7483 117.407 63.1308 116.835 65.5776C116.468 67.1471 115.612 68.3395 114.219 69.1519C113.419 69.6182 112.529 70.0024 111.756 70.4937C108.553 72.5289 107.419 75.0323 105.843 78.2291C105.471 79.1829 104.744 80.5432 104.274 81.5041C103.406 83.2827 102.55 85.0666 101.706 86.8567L99.1396 92.3712C98.5924 93.5412 98.0399 94.8945 97.2988 95.9355C96.5452 97.0129 95.5113 97.8653 94.3093 98.3991C92.7114 99.1064 90.8189 99.1945 89.1889 98.5414C87.7307 97.9649 86.5625 96.8296 85.9423 95.3892C85.2866 93.8232 85.3889 91.4806 86.1514 89.9983C87.4211 87.5311 88.4976 84.6324 89.8028 82.2293C90.6917 80.2229 91.6971 78.0903 92.6348 76.0928C93.8973 73.4035 94.9819 70.3284 96.8957 68.0827C98.4741 66.2301 99.8113 65.4293 101.826 64.2185C99.7295 62.9766 98.4483 62.4103 96.6964 60.3747C94.3057 57.5976 93.037 53.6704 91.3581 50.3766C90.4968 48.6862 89.0795 45.9944 88.4033 44.3119C87.6204 43.2147 85.5108 38.6781 84.9441 37.2392C84.549 36.2344 84.565 34.2023 85.1158 33.1646C85.7048 31.6441 86.8596 30.5837 88.2494 29.7954Z" fill="#D9B9E1"/>
<path d="M20.2567 53.7602C20.7496 53.1902 22.0803 50.3035 22.4791 49.4673C24.2637 45.7985 26.029 42.1204 27.7748 38.433C28.6043 36.6904 30.1177 32.8395 31.3086 31.5462C34.65 27.9174 40.4563 28.3909 42.3354 33.3892C42.8967 36.4954 42.2397 37.529 40.9522 40.203C40.1614 41.8349 39.3817 43.4719 38.6131 45.1144C37.3892 47.7419 36.1843 50.3995 34.9479 53.0237C34.0867 54.8517 33.1271 57.4547 32.0114 59.0644C30.4421 61.3288 28.2357 62.8565 25.8983 64.2128C31.6204 67.3938 32.9149 70.5176 35.3973 76.2807C35.6857 76.9507 36.909 79.1501 36.9634 79.732C37.459 80.4313 38.9337 83.7989 39.3934 84.7705C40.2032 86.4814 41.633 88.9904 42.115 90.6969C42.4041 91.6881 42.4701 92.7308 42.3084 93.7513C41.3313 99.6119 33.4388 100.241 30.5708 95.5753C29.6303 94.0458 28.2056 91.1133 27.5606 89.4024C27.0223 88.4637 26.422 87.122 25.9296 86.122L22.3854 78.8138C21.5196 77.0423 20.6598 75.1908 19.4716 73.6159C18.697 72.5707 17.7438 71.6706 16.6559 70.957C14.6443 69.6562 12.1382 69.1185 11.3312 66.5161C10.5646 64.0439 11.0575 61.047 13.3317 59.5336C14.2031 58.9537 15.1887 58.5854 16.0811 58.0533C17.6664 57.108 19.4558 55.4498 20.2567 53.7602Z" fill="#D9B9E1"/>
<path d="M59.3905 55.1539C59.3688 55.7832 59.0184 56.6436 58.8035 57.2624C61.0698 57.2083 68.1639 59.1925 70.5601 60.0703C70.9603 60.2169 71.3585 60.6197 71.822 60.8281C69.4083 67.7818 66.7536 74.9843 64.2453 81.9251L61.6393 89.0509C60.73 91.5634 59.122 96.4836 57.14 98.2764C52.8328 103.93 43.1243 104.628 37.1754 101.416C36.7671 101.196 36.3723 100.945 35.985 100.689C39.896 100.603 42.223 99.7284 44.3845 96.2968C44.4608 96.0316 44.9353 95.06 45.0829 94.7184C45.458 93.8509 45.7396 93.0875 46.0581 92.1987L51.4039 77.3385L56.5203 63.0859C57.3607 60.7185 58.4164 57.3943 59.3905 55.1539Z" fill="#D9B9E1"/>
<path d="M59.3905 55.1539C59.6517 54.1813 60.2886 52.537 60.6421 51.565L63.1329 44.7775L65.6453 37.6565C67.2925 33.0145 68.6872 29.2782 73.3029 26.6153C77.3449 24.2833 82.6823 24.3082 87.13 25.3423C88.809 25.7562 90.1302 26.5014 91.5626 27.4303C84.274 26.7263 82.6521 30.9435 80.4909 36.8971L78.5442 42.2403L71.822 60.8281C71.3586 60.6197 70.9603 60.2169 70.5602 60.0703C68.164 59.1925 61.0699 57.2083 58.8036 57.2624C59.0185 56.6436 59.3688 55.7832 59.3905 55.1539Z" fill="#D9B9E1"/>
<rect x="1" y="1" width="126" height="126" rx="14" stroke="url(#paint2_linear_8_41)" stroke-width="2"/>
</g>
<defs>
<radialGradient id="paint0_radial_8_41" cx="0" cy="0" r="1" gradientUnits="userSpaceOnUse" gradientTransform="translate(64 64) rotate(90) scale(64)">
<stop stop-color="#7D45A6"/>
<stop offset="1" stop-color="#3F2353"/>
</radialGradient>
<linearGradient id="paint1_linear_8_41" x1="64.0862" y1="53.0596" x2="64.0862" y2="128" gradientUnits="userSpaceOnUse">
<stop stop-color="#75419C"/>
<stop offset="1" stop-color="#1B0F25"/>
</linearGradient>
<linearGradient id="paint2_linear_8_41" x1="-1.25265e-06" y1="9.47619" x2="128" y2="118.524" gradientUnits="userSpaceOnUse">
<stop stop-color="#733D9C"/>
<stop offset="1" stop-color="#3F2253"/>
</linearGradient>
<clipPath id="clip0_8_41">
<rect width="128" height="128" rx="15" fill="white"/>
</clipPath>
</defs>
</svg>
