<svg width="128" height="128" viewBox="0 0 128 128" fill="none" xmlns="http://www.w3.org/2000/svg">
<g clip-path="url(#clip0_3_3)">
<rect width="128" height="128" rx="15" fill="url(#paint0_linear_3_3)"/>
<path d="M2.89893 75.4814C2.89893 75.1242 3.33845 74.9542 3.57878 75.2184L4.25864 75.9647L4.9385 76.7092L5.61836 77.451L6.29822 78.1892L6.97808 78.9228L7.65794 79.651L8.3378 80.3729L9.01766 81.0877L9.69752 81.7943L10.3774 82.492L11.0572 83.18L11.7371 83.8573L12.417 84.5232L13.0968 85.1769L13.7767 85.8175L14.4565 86.4443L15.1364 87.0565L15.8162 87.6534L16.4961 88.2342L17.176 88.7982L17.8558 89.3448L18.5357 89.8733L19.2155 90.383L19.8954 90.8733L20.5753 91.3437L21.2551 91.7934L21.935 92.2221L22.6148 92.6291L23.2947 93.0141L23.9746 93.3764L24.6544 93.7157L25.3343 94.0315L26.0141 94.3236L26.694 94.5914L27.3738 94.8347L28.0537 95.0532L28.7336 95.2467L29.4134 95.4148L30.0933 95.5574L30.7731 95.6743L31.453 95.7654L32.1329 95.8305L32.8127 95.8696L33.4926 95.8827L34.1724 95.8696L34.8523 95.8305L35.5322 95.7654L36.212 95.6743L36.8919 95.5574L37.5717 95.4148L38.2516 95.2467L38.9315 95.0532L39.6113 94.8347L40.2912 94.5914L40.971 94.3236L41.6509 94.0315L42.3307 93.7157L43.0106 93.3764L43.6905 93.0141L44.3703 92.6291L45.0502 92.2221L45.73 91.7934L46.4099 91.3437L47.0898 90.8733L47.7696 90.383L48.4495 89.8733L49.1293 89.3448L49.8092 88.7982L50.4891 88.2342L51.1689 87.6534L51.8488 87.0565L52.5286 86.4443L53.2085 85.8175L53.8884 85.1769L54.5682 84.5232L55.2481 83.8573L55.9279 83.18L56.6078 82.492L57.2876 81.7943L57.9675 81.0877L58.6474 80.3729L59.3272 79.651L60.0071 78.9228L60.6869 78.1892L61.3668 77.451L62.0467 76.7092L62.7265 75.9647L63.4064 75.2184L64.0862 74.4711L64.7661 73.7239L65.446 72.9775L66.1258 72.233L66.8057 71.4912L67.4855 70.753L68.1654 70.0194L68.8452 69.2912L69.5251 68.5693L70.205 67.8546L70.8848 67.1479L71.5647 66.4502L72.2445 65.7623L72.9244 65.0849L73.6043 64.419L74.2841 63.7653L74.964 63.1247L75.6438 62.4979L76.3237 61.8857L77.0036 61.2889L77.6834 60.708L78.3633 60.144L79.0431 59.5974L79.723 59.0689L80.4029 58.5592L81.0827 58.0689L81.7626 57.5986L82.4424 57.1488L83.1223 56.7201L83.8021 56.3131L84.482 55.9282L85.1619 55.5658L85.8417 55.2265L86.5216 54.9107L87.2014 54.6187L87.8813 54.3508L88.5612 54.1075L89.241 53.889L89.9209 53.6956L90.6007 53.5275L91.2806 53.3849L91.9605 53.2679L92.6403 53.1769L93.3202 53.1117L94 53.0726L94.6799 53.0596L95.3598 53.0726L96.0396 53.1117L96.7195 53.1769L97.3993 53.2679L98.0792 53.3849L98.759 53.5275L99.4389 53.6956L100.119 53.889L100.799 54.1075L101.478 54.3508L102.158 54.6187L102.838 54.9107L103.518 55.2265L104.198 55.5658L104.878 55.9282L105.558 56.3131L106.237 56.7201L106.917 57.1488L107.597 57.5986L108.277 58.0689L108.957 58.5592L109.637 59.0689L110.317 59.5974L110.997 60.144L111.676 60.708L112.356 61.2889L113.036 61.8857L113.716 62.4979L114.396 63.1247L115.076 63.7653L115.756 64.419L116.435 65.0849L117.115 65.7623L117.795 66.4502L118.475 67.1479L119.155 67.8546L119.835 68.5693L120.515 69.2912L121.194 70.0194L121.874 70.753L122.554 71.4912L123.234 72.233L123.914 72.9775L124.594 73.7239C125.031 74.2047 125.274 74.8313 125.274 75.4814V113C125.274 121.284 118.558 128 110.274 128H17.8299C9.58377 128 2.89893 121.315 2.89893 113.069V75.4814Z" fill="url(#paint1_linear_3_3)"/>
<path d="M90.2152 27.0925C92.1967 26.2785 94.122 26.1825 96.2574 27.0315C100.251 28.6196 101.134 33.3073 103.01 36.7024C103.053 36.7795 103.055 36.8123 103.07 36.8894C103.652 37.8421 104.442 39.5985 104.951 40.6574L108.547 48.104C109.37 49.7953 110.27 51.7572 111.284 53.32C112.317 54.9276 113.66 56.3139 115.233 57.3984C116.287 58.1231 117.547 58.6318 118.631 59.307C120.977 60.768 121.938 63.3601 121.316 66.0221C120.916 67.7298 119.985 69.027 118.469 69.9108C117.599 70.4181 116.631 70.8362 115.789 71.3707C112.305 73.5849 111.071 76.3085 109.356 79.7865C108.952 80.8242 108.161 82.3042 107.65 83.3496C106.705 85.2846 105.774 87.2255 104.855 89.173L102.063 95.1726C101.468 96.4455 100.867 97.9178 100.061 99.0503C99.2407 100.223 98.1159 101.15 96.8082 101.731C95.0697 102.5 93.0107 102.596 91.2374 101.886C89.6509 101.258 88.3799 100.023 87.7052 98.456C86.9918 96.7524 87.1031 94.2036 87.9327 92.591C89.314 89.9068 90.4853 86.7531 91.9053 84.1385C92.8723 81.9557 93.9661 79.6355 94.9864 77.4624C96.36 74.5364 97.5399 71.1909 99.6221 68.7476C101.339 66.7321 102.794 65.8608 104.986 64.5435C102.705 63.1923 101.311 62.5762 99.4052 60.3616C96.8043 57.3402 95.4239 53.0676 93.5973 49.484C92.6603 47.645 91.1183 44.7164 90.3827 42.8859C89.5308 41.6922 87.2358 36.7565 86.6191 35.1911C86.1894 34.0979 86.2068 31.8871 86.806 30.7581C87.4468 29.1038 88.7032 27.9502 90.2152 27.0925Z" fill="url(#paint2_linear_3_3)"/>
<path d="M91.9053 84.1385C91.9169 84.3253 91.9363 84.3834 91.9827 84.5664C92.3854 84.9071 92.5461 84.7958 92.9507 84.9652C95.9999 86.242 98.8758 88.0927 101.586 89.9697C102.206 90.3994 102.814 91.2968 103.525 91.5107C103.548 91.3326 103.958 90.6792 104.071 90.4314C105.701 86.8905 107.366 83.3593 109.131 79.8833C109.205 79.8513 109.281 79.8184 109.356 79.7865C108.952 80.8241 108.161 82.3042 107.65 83.3496C106.705 85.2846 105.774 87.2254 104.855 89.173L102.063 95.1726C101.468 96.4455 100.867 97.9178 100.061 99.0503C99.2407 100.223 98.1159 101.15 96.8082 101.731C95.0697 102.5 93.0108 102.596 91.2374 101.886C89.6509 101.258 88.3799 100.023 87.7052 98.456C86.9918 96.7523 87.1031 94.2036 87.9327 92.591C89.314 89.9067 90.4853 86.753 91.9053 84.1385Z" fill="url(#paint3_linear_3_3)"/>
<path d="M90.2152 27.0925C92.1967 26.2785 94.122 26.1825 96.2574 27.0315C100.251 28.6196 101.134 33.3073 103.01 36.7024C103.053 36.7795 103.055 36.8123 103.07 36.8894C102.223 36.6182 100.175 29.6606 98.6105 29.0241C97.265 29.232 93.2692 34.4872 92.3748 35.7115C92.0979 36.0899 89.2879 40.1489 89.3014 40.2732C89.3876 41.0433 90.5317 42.1406 90.3827 42.8859C89.5308 41.6922 87.2358 36.7565 86.6191 35.1911C86.1894 34.0979 86.2068 31.8871 86.806 30.7581C87.4468 29.1038 88.7032 27.9502 90.2152 27.0925Z" fill="url(#paint4_linear_3_3)"/>
<path d="M86.8059 30.7581C87.4467 29.1038 88.7032 27.9502 90.2151 27.0926C89.6886 29.0918 88.5434 29.8066 86.8059 30.7581Z" fill="#733197"/>
<path d="M16.2418 53.1651C16.7781 52.545 18.2258 49.4044 18.6597 48.4946C20.6013 44.5031 22.5218 40.5015 24.4212 36.4897C25.3237 34.5939 26.9702 30.4042 28.2659 28.9972C31.9012 25.0491 38.2182 25.5643 40.2626 31.0022C40.8733 34.3817 40.1585 35.5062 38.7577 38.4155C37.8974 40.1908 37.0491 41.9719 36.2128 43.7588C34.8814 46.6175 33.5704 49.5088 32.2253 52.3638C31.2883 54.3526 30.2443 57.1846 29.0305 58.9359C27.3231 61.3995 24.9226 63.0616 22.3796 64.5372C28.605 67.998 30.0135 71.3965 32.7142 77.6666C33.028 78.3955 34.3588 80.7884 34.4181 81.4214C34.9572 82.1823 36.5617 85.8461 37.0618 86.9031C37.9428 88.7646 39.4984 91.4943 40.0228 93.3509C40.3373 94.4292 40.4091 95.5637 40.2332 96.674C39.1702 103.05 30.5834 103.734 27.4631 98.6583C26.4399 96.9944 24.8899 93.8039 24.1881 91.9425C23.6025 90.9212 22.9494 89.4615 22.4137 88.3735L18.5577 80.4225C17.6158 78.4952 16.6803 76.4808 15.3876 74.7674C14.5449 73.6302 13.5079 72.6509 12.3243 71.8746C10.1357 70.4594 7.40919 69.8744 6.53122 67.0431C5.69721 64.3535 6.23347 61.0929 8.70764 59.4464C9.65568 58.8154 10.728 58.4148 11.6989 57.8359C13.4237 56.8074 15.3705 55.0034 16.2418 53.1651Z" fill="url(#paint5_linear_3_3)"/>
<path d="M34.4181 81.4214C34.9572 82.1823 36.5617 85.8461 37.0618 86.9031C37.9428 88.7645 39.4984 91.4943 40.0228 93.3509C40.3373 94.4292 40.4091 95.5637 40.2332 96.674C39.1702 103.05 30.5834 103.734 27.4631 98.6583C26.4399 96.9944 24.8899 93.8039 24.1881 91.9424C24.5216 92.2241 24.7522 92.7691 24.9647 93.1757C26.6185 91.4662 28.5449 89.7916 30.2994 88.1325C31.5658 86.9341 33.4626 85.6399 34.5703 84.305C34.6217 84.1908 35.1965 83.4203 35.1842 83.3651C35.0276 82.6682 34.4601 82.1348 34.4181 81.4214Z" fill="url(#paint6_linear_3_3)"/>
<path d="M58.8179 54.6815C58.7943 55.3662 58.4131 56.3022 58.1793 56.9755C60.645 56.9166 68.3631 59.0753 70.9701 60.0303C71.4054 60.1899 71.8387 60.6281 72.3429 60.8549C69.7169 68.4201 66.8287 76.2563 64.0997 83.8075L61.2646 91.5601C60.2753 94.2937 58.5259 99.6466 56.3695 101.597C51.6834 107.748 41.1209 108.508 34.6488 105.013C34.2046 104.773 33.775 104.5 33.3536 104.222C37.6087 104.128 40.1404 103.177 42.492 99.4434C42.575 99.1549 43.0913 98.0979 43.2519 97.7262C43.66 96.7824 43.9662 95.9518 44.3128 94.9848L50.1288 78.8176L55.6953 63.3112C56.6096 60.7356 57.7582 57.119 58.8179 54.6815Z" fill="url(#paint7_linear_3_3)"/>
<path d="M58.8179 54.6815C59.102 53.6233 59.795 51.8344 60.1796 50.777L62.8894 43.3924L65.6228 35.6451C67.415 30.5947 68.9323 26.5297 73.954 23.6327C78.3515 21.0955 84.1585 21.1226 88.9974 22.2477C90.824 22.698 92.2615 23.5087 93.8199 24.5193C85.8902 23.7534 84.1256 28.3415 81.7743 34.8188L79.6564 40.632L72.3429 60.8548C71.8386 60.628 71.4054 60.1898 70.9701 60.0303C68.3631 59.0753 60.645 56.9166 58.1793 56.9755C58.4131 56.3022 58.7943 55.3662 58.8179 54.6815Z" fill="url(#paint8_linear_3_3)"/>
<rect x="1" y="1" width="126" height="126" rx="14" stroke="url(#paint9_linear_3_3)" stroke-width="2"/>
</g>
<defs>
<linearGradient id="paint0_linear_3_3" x1="64" y1="0" x2="64" y2="128" gradientUnits="userSpaceOnUse">
<stop stop-color="#7D45A6"/>
<stop offset="1" stop-color="#180D20"/>
</linearGradient>
<linearGradient id="paint1_linear_3_3" x1="64.0862" y1="53.0596" x2="64.0862" y2="128" gradientUnits="userSpaceOnUse">
<stop stop-color="#75419C"/>
<stop offset="1" stop-color="#1B0F25"/>
</linearGradient>
<linearGradient id="paint2_linear_3_3" x1="86.6453" y1="63.7976" x2="119.208" y2="55.5575" gradientUnits="userSpaceOnUse">
<stop stop-color="#AC77CC"/>
<stop offset="1" stop-color="#F6D6FF"/>
</linearGradient>
<linearGradient id="paint3_linear_3_3" x1="90.2723" y1="101.19" x2="98.2243" y2="87.7656" gradientUnits="userSpaceOnUse">
<stop stop-color="#7E41A9"/>
<stop offset="1" stop-color="#AA72CA"/>
</linearGradient>
<linearGradient id="paint4_linear_3_3" x1="87.7275" y1="29.622" x2="93.9652" y2="34.5153" gradientUnits="userSpaceOnUse">
<stop stop-color="#7840A5"/>
<stop offset="1" stop-color="#A976CC"/>
</linearGradient>
<linearGradient id="paint5_linear_3_3" x1="44.9195" y1="74.192" x2="14.2354" y2="42.9466" gradientUnits="userSpaceOnUse">
<stop stop-color="#AA74C9"/>
<stop offset="1" stop-color="#F7D6FF"/>
</linearGradient>
<linearGradient id="paint6_linear_3_3" x1="39.7165" y1="98.2924" x2="28.5369" y2="88.7888" gradientUnits="userSpaceOnUse">
<stop stop-color="#61278F"/>
<stop offset="1" stop-color="#A56BC6"/>
</linearGradient>
<linearGradient id="paint7_linear_3_3" x1="51.1448" y1="105.305" x2="62.6964" y2="57.6188" gradientUnits="userSpaceOnUse">
<stop stop-color="#5D218D"/>
<stop offset="1" stop-color="#BD8CD8"/>
</linearGradient>
<linearGradient id="paint8_linear_3_3" x1="75.4001" y1="60.75" x2="75.8396" y2="21.6038" gradientUnits="userSpaceOnUse">
<stop stop-color="#C99CE4"/>
<stop offset="1" stop-color="#F1CCFF"/>
</linearGradient>
<linearGradient id="paint9_linear_3_3" x1="-1.25265e-06" y1="9.47619" x2="128" y2="118.524" gradientUnits="userSpaceOnUse">
<stop stop-color="#733D9C"/>
<stop offset="1" stop-color="#3F2253"/>
</linearGradient>
<clipPath id="clip0_3_3">
<rect width="128" height="128" rx="15" fill="white"/>
</clipPath>
</defs>
</svg>
