<svg width="512" height="512" viewBox="0 0 512 512" fill="none" xmlns="http://www.w3.org/2000/svg" xmlns:xlink="http://www.w3.org/1999/xlink">
<g clip-path="url(#clip0_2_4)">
<rect width="512" height="512" rx="60" fill="url(#paint0_linear_2_4)"/>
<rect x="-6.76489" y="-1.24043" width="512" height="512" rx="40" fill="url(#pattern0_2_4)"/>
<path d="M5.24048 228L8.38225 231.947L11.524 235.89L14.6658 239.823L17.8076 243.741L20.9493 247.64L24.0911 251.516L27.2329 255.362L30.3747 259.176L33.5164 262.951L36.6582 266.684L39.8 270.369L42.9418 274.003L46.0835 277.581L49.2253 281.099L52.3671 284.552L55.5089 287.936L58.6506 291.247L61.7924 294.481L64.9342 297.634L68.0759 300.702L71.2177 303.681L74.3595 306.569L77.5013 309.36L80.643 312.052L83.7848 314.643L86.9266 317.127L90.0684 319.503L93.2101 321.767L96.3519 323.917L99.4937 325.951L102.635 327.865L105.777 329.657L108.919 331.325L112.061 332.868L115.203 334.283L118.344 335.568L121.486 336.722L124.628 337.744L127.77 338.632L130.911 339.385L134.053 340.003L137.195 340.484L140.337 340.828L143.479 341.035L146.62 341.104L149.762 341.035L152.904 340.828L156.046 340.484L159.187 340.003L162.329 339.385L165.471 338.632L168.613 337.744L171.754 336.722L174.896 335.568L178.038 334.283L181.18 332.868L184.322 331.325L187.463 329.657L190.605 327.865L193.747 325.951L196.889 323.917L200.03 321.767L203.172 319.503L206.314 317.127L209.456 314.643L212.598 312.052L215.739 309.36L218.881 306.569L222.023 303.681L225.165 300.702L228.306 297.634L231.448 294.481L234.59 291.247L237.732 287.936L240.873 284.552L244.015 281.099L247.157 277.581L250.299 274.003L253.441 270.369L256.582 266.684L259.724 262.951L262.866 259.176L266.008 255.362L269.149 251.516L272.291 247.64L275.433 243.741L278.575 239.823L281.717 235.89L284.858 231.947L288 228L291.142 224.053L294.284 220.11L297.425 216.177L300.567 212.259L303.709 208.36L306.851 204.484L309.992 200.638L313.134 196.824L316.276 193.049L319.418 189.316L322.56 185.631L325.701 181.997L328.843 178.419L331.985 174.901L335.127 171.448L338.268 168.064L341.41 164.753L344.552 161.519L347.694 158.366L350.836 155.298L353.977 152.319L357.119 149.431L360.261 146.64L363.403 143.947L366.544 141.357L369.686 138.873L372.828 136.497L375.97 134.233L379.111 132.082L382.253 130.049L385.395 128.135L388.537 126.343L391.679 124.674L394.82 123.132L397.962 121.717L401.104 120.432L404.246 119.278L407.387 118.256L410.529 117.368L413.671 116.614L416.813 115.997L419.955 115.516L423.096 115.172L426.238 114.965L429.38 114.896L432.522 114.965L435.663 115.172L438.805 115.516L441.947 115.997L445.089 116.614L448.23 117.368L451.372 118.256L454.514 119.278L457.656 120.432L460.798 121.717L463.939 123.132L467.081 124.674L470.223 126.343L473.365 128.135L476.506 130.049L479.648 132.082L482.79 134.233L485.932 136.497L489.074 138.873L492.215 141.357L495.357 143.947L498.499 146.64L501.641 149.431L504.782 152.319L507.924 155.298L511.066 158.366L514.208 161.519L517.349 164.753L520.491 168.064L523.633 171.448L526.775 174.901L529.917 178.419L533.058 181.997L536.2 185.631L539.342 189.316L542.484 193.049L545.625 196.824L548.767 200.638L551.909 204.484L555.051 208.36L558.193 212.259L561.334 216.177L564.476 220.11L567.618 224.053L570.76 228V510.76H5.24048V228Z" fill="url(#paint1_linear_2_4)" fill-opacity="0.84"/>
<path d="M360.861 108.37C368.787 105.114 376.488 104.73 385.029 108.126C401.005 114.479 404.536 133.229 412.04 146.81C412.21 147.118 412.218 147.249 412.28 147.558C414.607 151.368 417.767 158.394 419.803 162.63L434.188 192.416C437.479 199.181 441.08 207.029 445.137 213.28C449.269 219.71 454.639 225.256 460.931 229.594C465.148 232.492 470.189 234.527 474.525 237.228C483.907 243.072 487.752 253.44 485.262 264.089C483.663 270.919 479.938 276.108 473.875 279.643C470.394 281.673 466.522 283.345 463.157 285.483C449.218 294.34 444.286 305.234 437.425 319.146C435.806 323.297 432.643 329.217 430.598 333.399C426.819 341.139 423.094 348.902 419.42 356.692L408.253 380.69C405.872 385.782 403.468 391.671 400.242 396.201C396.963 400.89 392.464 404.6 387.233 406.923C380.279 410.001 372.043 410.384 364.95 407.542C358.603 405.033 353.52 400.093 350.821 393.824C347.967 387.009 348.413 376.815 351.731 370.364C357.256 359.627 361.941 347.012 367.621 336.554C371.489 327.823 375.865 318.542 379.946 309.849C385.44 298.146 390.16 284.764 398.488 274.99C405.357 266.928 411.177 263.443 419.943 258.174C410.82 252.769 405.245 250.305 397.621 241.446C387.217 229.361 381.696 212.271 374.389 197.936C370.641 190.58 364.473 178.866 361.531 171.544C358.123 166.769 348.943 147.026 346.477 140.764C344.757 136.392 344.827 127.548 347.224 123.032C349.787 116.415 354.813 111.801 360.861 108.37Z" fill="url(#paint2_linear_2_4)"/>
<path d="M367.621 336.554C367.668 337.301 367.745 337.534 367.931 338.266C369.542 339.629 370.184 339.183 371.803 339.861C384 344.968 395.503 352.371 406.345 359.879C408.823 361.598 411.254 365.187 414.1 366.043C414.193 365.33 415.831 362.717 416.284 361.726C422.804 347.562 429.464 333.437 436.522 319.533C436.821 319.405 437.123 319.274 437.425 319.146C435.806 323.297 432.643 329.217 430.598 333.399C426.819 341.139 423.095 348.902 419.42 356.692L408.253 380.69C405.872 385.782 403.468 391.671 400.242 396.201C396.963 400.89 392.464 404.6 387.233 406.923C380.279 410.001 372.043 410.384 364.95 407.542C358.604 405.033 353.52 400.093 350.821 393.824C347.967 387.009 348.413 376.815 351.731 370.364C357.256 359.627 361.941 347.012 367.621 336.554Z" fill="url(#paint3_linear_2_4)"/>
<path d="M360.861 108.37C368.787 105.114 376.488 104.73 385.029 108.126C401.005 114.479 404.536 133.229 412.04 146.81C412.21 147.118 412.218 147.249 412.28 147.558C408.892 146.473 400.699 118.642 394.442 116.097C389.06 116.928 373.077 137.949 369.499 142.846C368.392 144.36 357.152 160.596 357.206 161.093C357.55 164.173 362.127 168.563 361.531 171.544C358.123 166.769 348.943 147.026 346.477 140.764C344.757 136.392 344.827 127.548 347.224 123.032C349.787 116.415 354.813 111.801 360.861 108.37Z" fill="url(#paint4_linear_2_4)"/>
<path d="M347.224 123.032C349.787 116.415 354.813 111.801 360.861 108.37C358.754 116.367 354.174 119.226 347.224 123.032Z" fill="#733197"/>
<path d="M64.9676 212.66C67.1127 210.18 72.9036 197.618 74.639 193.978C82.4053 178.012 90.0876 162.006 97.6851 145.959C101.295 138.375 107.881 121.617 113.064 115.989C127.605 100.197 152.873 102.257 161.051 124.009C163.493 137.527 160.634 142.025 155.031 153.662C151.59 160.763 148.196 167.888 144.852 175.035C139.526 186.47 134.282 198.035 128.901 209.455C125.153 217.411 120.978 228.738 116.122 235.744C109.293 245.598 99.6908 252.246 89.5188 258.149C114.42 271.992 120.054 285.586 130.857 310.667C132.112 313.582 137.436 323.154 137.673 325.686C139.829 328.729 146.247 343.384 148.248 347.613C151.771 355.058 157.994 365.977 160.091 373.404C161.349 377.717 161.637 382.255 160.933 386.696C156.681 412.2 122.334 414.938 109.853 394.633C105.76 387.977 99.5599 375.216 96.7527 367.77C94.4102 363.685 91.7978 357.846 89.6551 353.494L74.2312 321.69C70.4635 313.981 66.7216 305.923 61.5506 299.07C58.1797 294.521 54.0317 290.604 49.2975 287.498C40.5431 281.838 29.637 279.497 26.1251 268.172C22.7891 257.414 24.9341 244.372 34.8308 237.785C38.623 235.262 42.9123 233.659 46.7959 231.344C53.6949 227.23 61.4821 220.014 64.9676 212.66Z" fill="url(#paint5_linear_2_4)"/>
<path d="M137.672 325.686C139.829 328.729 146.247 343.384 148.248 347.612C151.771 355.058 157.994 365.977 160.091 373.403C161.349 377.717 161.637 382.255 160.933 386.696C156.681 412.2 122.334 414.938 109.853 394.633C105.76 387.977 99.5598 375.216 96.7527 367.77C98.0866 368.897 99.0089 371.076 99.8591 372.703C106.474 365.865 114.18 359.166 121.198 352.53C126.263 347.736 133.85 342.56 138.282 337.22C138.487 336.763 140.786 333.681 140.737 333.461C140.111 330.673 137.841 328.539 137.672 325.686Z" fill="url(#paint6_linear_2_4)"/>
<path d="M235.272 218.726C235.177 221.465 233.652 225.209 232.717 227.902C242.58 227.667 273.452 236.301 283.88 240.121C285.622 240.76 287.355 242.512 289.372 243.42C278.868 273.681 267.315 305.025 256.399 335.23L245.058 366.24C241.101 377.175 234.103 398.587 225.478 406.389C206.734 430.991 164.484 434.03 138.595 420.053C136.818 419.092 135.1 418.001 133.415 416.889C150.435 416.514 160.561 412.708 169.968 397.774C170.3 396.62 172.365 392.392 173.007 390.905C174.64 387.13 175.865 383.807 177.251 379.939L200.515 315.27L222.781 253.245C226.438 242.943 231.033 228.476 235.272 218.726Z" fill="url(#paint7_linear_2_4)"/>
<path d="M235.272 218.726C236.408 214.493 239.18 207.338 240.718 203.108L251.558 173.57L262.491 142.58C269.66 122.379 275.729 106.119 295.816 94.5307C313.406 84.3819 336.634 84.4903 355.99 88.9907C363.296 90.7919 369.046 94.0347 375.28 98.0774C343.561 95.0135 336.502 113.366 327.097 139.275L318.625 162.528L289.371 243.419C287.355 242.512 285.621 240.759 283.88 240.121C273.452 236.301 242.58 227.666 232.717 227.902C233.652 225.209 235.177 221.465 235.272 218.726Z" fill="url(#paint8_linear_2_4)"/>
<path d="M476.322 65.4071C477.956 64.7067 479.849 65.4594 480.558 67.091C481.262 68.723 480.519 70.6191 478.889 71.3323C477.251 72.0498 475.342 71.2994 474.63 69.6585C473.921 68.0176 474.676 66.1114 476.322 65.4071Z" fill="#733197"/>
<rect x="4" y="4" width="504" height="504" rx="36" stroke="url(#paint9_linear_2_4)" stroke-width="8"/>
</g>
<defs>
<linearGradient id="paint0_linear_2_4" x1="17.2841" y1="1.72695e-06" x2="494.716" y2="512" gradientUnits="userSpaceOnUse">
<stop stop-color="white"/>
<stop offset="0.620192" stop-color="#F3E4FF"/>
</linearGradient>
<linearGradient id="paint1_linear_2_4" x1="288" y1="114.896" x2="288" y2="510.76" gradientUnits="userSpaceOnUse">
<stop stop-color="white"/>
<stop offset="1" stop-color="#DEB4FF"/>
</linearGradient>
<linearGradient id="paint2_linear_2_4" x1="346.581" y1="255.191" x2="476.833" y2="222.23" gradientUnits="userSpaceOnUse">
<stop stop-color="#AC77CC"/>
<stop offset="1" stop-color="#F6D6FF"/>
</linearGradient>
<linearGradient id="paint3_linear_2_4" x1="361.089" y1="404.758" x2="392.897" y2="351.062" gradientUnits="userSpaceOnUse">
<stop stop-color="#7E41A9"/>
<stop offset="1" stop-color="#AA72CA"/>
</linearGradient>
<linearGradient id="paint4_linear_2_4" x1="350.91" y1="118.488" x2="375.861" y2="138.061" gradientUnits="userSpaceOnUse">
<stop stop-color="#7840A5"/>
<stop offset="1" stop-color="#A976CC"/>
</linearGradient>
<linearGradient id="paint5_linear_2_4" x1="179.678" y1="296.768" x2="56.9419" y2="171.786" gradientUnits="userSpaceOnUse">
<stop stop-color="#AA74C9"/>
<stop offset="1" stop-color="#F7D6FF"/>
</linearGradient>
<linearGradient id="paint6_linear_2_4" x1="158.866" y1="393.17" x2="114.148" y2="355.155" gradientUnits="userSpaceOnUse">
<stop stop-color="#61278F"/>
<stop offset="1" stop-color="#A56BC6"/>
</linearGradient>
<linearGradient id="paint7_linear_2_4" x1="204.579" y1="421.222" x2="250.786" y2="230.475" gradientUnits="userSpaceOnUse">
<stop stop-color="#5D218D"/>
<stop offset="1" stop-color="#BD8CD8"/>
</linearGradient>
<linearGradient id="paint8_linear_2_4" x1="301.601" y1="243" x2="303.358" y2="86.4151" gradientUnits="userSpaceOnUse">
<stop stop-color="#C99CE4"/>
<stop offset="1" stop-color="#F1CCFF"/>
</linearGradient>
<linearGradient id="paint9_linear_2_4" x1="-5.01058e-06" y1="37.9048" x2="512" y2="474.095" gradientUnits="userSpaceOnUse">
<stop stop-color="white"/>
<stop offset="1" stop-color="#CD97F9"/>
</linearGradient>
<clipPath id="clip0_2_4">
<rect width="512" height="512" rx="60" fill="white"/>
</clipPath>
<pattern id="pattern0_2_4" patternUnits="userSpaceOnUse" patternTransform="matrix(13.36 0 0 13.36 -6.76489 -1.24043)" preserveAspectRatio="none" viewBox="0 0 13.36 13.36" width="1" height="1">
<g id="pattern0_2_4_inner">
<path d="M4 2C4 3.10457 3.10457 4 2 4C0.89543 4 0 3.10457 0 2C0 0.89543 0.89543 0 2 0C3.10457 0 4 0.89543 4 2Z" fill="#D9D9D9"/>
</g>
</pattern></defs>
</svg>
