<svg width="227" height="317" viewBox="0 0 227 317" fill="none" xmlns="http://www.w3.org/2000/svg">
<path opacity="0.6" d="M226.553 29.035L183.001 54.1801L183.001 3.88995L226.553 29.035Z" fill="currentColor" fill-opacity="0.6"/>
<path opacity="0.6" d="M212.958 155.385L170.275 180.028L170.275 130.742L212.958 155.385Z" fill="currentColor" fill-opacity="0.6"/>
<path opacity="0.6" d="M225.733 288.261L183.043 312.908L183.043 263.614L225.733 288.261Z" fill="currentColor" fill-opacity="0.6"/>
<path d="M15.4 312.903C5.13333 312.903 0 307.476 0 296.623V21.1826C0 10.3293 5.13333 4.90259 15.4 4.90259L183 3.90259C183 27.9026 183 11.2892 183 23.9026V35.4026C183 48.0159 183 33.9026 183 54.1826H58.52V130.743H170.28C170.28 149.663 170.28 137.049 170.28 149.663V161.103C170.28 173.716 170.28 165.903 170.28 180.023H58.52V263.623H183.04C183.04 286.903 183.04 269.929 183.04 282.543V293.983C183.04 306.596 183.04 296.403 183.04 312.903H15.4Z" fill="currentColor"/>
</svg>
